<svg xmlns="http://www.w3.org/2000/svg" version="1.1" xmlns:xlink="http://www.w3.org/1999/xlink" width="1500" height="1500" viewBox="0 0 1500 1500"><rect width="1500" height="1500" x="0" y="0" id="background" stroke="transparent" fill="#ffffff"></rect><svg xml:space="preserve" width="1000" height="1000" data-version="2" data-id="lg_neS4L2L9IHiTnG2Qz2" viewBox="0 0 571 130" x="250" y="250"><rect width="100%" height="100%" fill="transparent"></rect><rect width="589.56" height="133.94" x="-294.78" y="-66.97" fill="#303030" rx="0" ry="0" transform="translate(285.5 65)scale(.9499)"></rect><path fill="#ffffff" d="M159.019 85.13v-55h10.63v55Z" paint-order="stroke"></path><rect width="10.63" height="55" x="-5.32" y="-27.5" fill="none" rx="0" ry="0" transform="translate(164.83 58.13)"></rect><path fill="#ffffff" d="M173.829 85.13V38.25h11.19v5.97q.63-2.69 2.33-4.58 1.7-1.89 4.73-1.89 4.88 0 7.08 3t2.2 8.22v36.16h-11.03v-35q0-1.38-.56-2.55t-1.94-1.17q-1.28 0-1.89.89-.61.89-.76 2.22-.16 1.32-.16 2.64v32.97Z" paint-order="stroke"></path><rect width="27.53" height="47.38" x="-13.77" y="-23.69" fill="none" rx="0" ry="0" transform="translate(188.1 61.94)"></rect><path fill="#ffffff" d="M206.769 85.13V48.84h-2.03v-8.53h2.03v-3.18q0-7.57 7.56-7.57 3.57 0 5.75.91v6.91q-.78-.16-1.03-.16-.97 0-1.19.7-.21.71-.21 1.8v.59h2.43v8.66h-2.22v36.16Zm16.84-49.75v-9.32h11.19v9.32Zm0 49.75V38.25h11.19v46.88Z" paint-order="stroke"></path><rect width="30.06" height="59.07" x="-15.03" y="-29.54" fill="none" rx="0" ry="0" transform="translate(220.27 56.1)"></rect><path fill="#ffffff" d="M239.239 85.13V38.25h11.19v5.97q.62-2.69 2.33-4.58 1.7-1.89 4.73-1.89 4.87 0 7.08 3 2.2 3 2.2 8.22v36.16h-11.03v-35q0-1.38-.56-2.55-.57-1.17-1.94-1.17-1.28 0-1.89.89-.61.89-.77 2.22-.15 1.32-.15 2.64v32.97Z" paint-order="stroke"></path><rect width="27.53" height="47.38" x="-13.77" y="-23.69" fill="none" rx="0" ry="0" transform="translate(253.5 61.94)"></rect><path fill="#ffffff" d="M271.079 35.38v-9.32h11.19v9.32Zm0 49.75V38.25h11.19v46.88Z" paint-order="stroke"></path><rect width="11.19" height="59.07" x="-5.59" y="-29.54" fill="none" rx="0" ry="0" transform="translate(277.17 56.1)"></rect><path fill="#ffffff" d="M296.329 85.63q-4.53 0-6.11-1.93-1.57-1.92-1.57-5.89V48.59h-3.16v-8.53h3.16v-9.93h10.87v9.93h3.16v8.53h-3.16v26.6q0 1.15.38 1.62.37.47 1.43.47.75 0 1.35-.12v7.62q-.38.13-2.35.49-1.97.36-4 .36" paint-order="stroke"></path><rect width="17.19" height="55.5" x="-8.6" y="-27.75" fill="none" rx="0" ry="0" transform="translate(294.58 58.38)"></rect><path fill="#ffffff" d="M305.329 92.94v-7.1h5.38q1.22 0 1.22-.84 0-.44-.1-.91l-7.34-45.84h10.72l3.12 34.5 3.69-34.5h10.78l-8.69 49.31q-.46 2.66-1.79 4.02-1.33 1.36-4.36 1.36Z" paint-order="stroke"></path><rect width="28.31" height="54.69" x="-14.15" y="-27.34" fill="none" rx="0" ry="0" transform="translate(319.14 66.1)"></rect><path fill="#ffffff" d="M355.649 85.13V40.69h-6.54V30.13h24.07v10.56h-6.53v44.44Z" paint-order="stroke"></path><rect width="24.07" height="55" x="-12.04" y="-27.5" fill="none" rx="0" ry="0" transform="translate(361.64 58.13)"></rect><path fill="#ffffff" d="M376.049 85.13V38.25h11.38v5.22q.81-2.72 2.87-4.25 2.06-1.53 5.19-1.53v9.34q-1.38 0-3.28.3-1.91.3-3.35.81-1.43.52-1.43 1.14v35.85Z" paint-order="stroke"></path><rect width="19.44" height="47.44" x="-9.72" y="-23.72" fill="none" rx="0" ry="0" transform="translate(386.27 61.91)"></rect><path fill="#ffffff" d="M398.179 35.38v-9.32h11.18v9.32Zm0 49.75V38.25h11.18v46.88Z" paint-order="stroke"></path><rect width="11.18" height="59.07" x="-5.59" y="-29.54" fill="none" rx="0" ry="0" transform="translate(404.27 56.1)"></rect><path fill="#ffffff" d="M426.429 93.25q-3.25 0-5.58-.33t-4.17-1.17q-1.85-.84-3.69-2.37l3.78-6.47q4.09 2.43 8.19 2.43 2.69 0 4-1.71 1.31-1.72 1.31-4.47v-4.6q-1.34 4.82-7.16 4.82-3.34 0-5.4-1.6-2.06-1.59-3-4.31-.94-2.72-.94-6.06V50.56q0-3.78.81-6.67.82-2.89 2.85-4.51 2.03-1.63 5.68-1.63 3.1 0 4.83 1.56 1.74 1.57 2.33 4.22v-5.28h11.41v40.19q0 7.97-3.67 11.39-3.68 3.42-11.58 3.42m1.22-22.31q2.62 0 2.62-4.75V50.25q0-1.28-.73-2.62-.74-1.35-2.02-1.35-1.62 0-2.03 1.2-.41 1.21-.41 2.77v15.94q0 1.69.43 3.22.42 1.53 2.14 1.53" paint-order="stroke"></path><rect width="28.69" height="55.5" x="-14.35" y="-27.75" fill="none" rx="0" ry="0" transform="translate(427.83 66)"></rect><path fill="#ffffff" d="M458.679 93.25q-3.25 0-5.58-.33t-4.17-1.17q-1.85-.84-3.69-2.37l3.78-6.47q4.09 2.43 8.19 2.43 2.69 0 4-1.71 1.31-1.72 1.31-4.47v-4.6q-1.34 4.82-7.16 4.82-3.34 0-5.4-1.6-2.06-1.59-3-4.31-.94-2.72-.94-6.06V50.56q0-3.78.81-6.67.82-2.89 2.85-4.51 2.03-1.63 5.68-1.63 3.1 0 4.83 1.56 1.74 1.57 2.33 4.22v-5.28h11.41v40.19q0 7.97-3.67 11.39-3.68 3.42-11.58 3.42m1.22-22.31q2.62 0 2.62-4.75V50.25q0-1.28-.73-2.62-.74-1.35-2.02-1.35-1.62 0-2.03 1.2-.41 1.21-.41 2.77v15.94q0 1.69.43 3.22.42 1.53 2.14 1.53" paint-order="stroke"></path><rect width="28.69" height="55.5" x="-14.35" y="-27.75" fill="none" rx="0" ry="0" transform="translate(460.08 66)"></rect><path fill="#ffffff" d="M491.429 85.63q-5 0-7.97-1.88-2.97-1.87-4.25-5.41-1.28-3.53-1.28-8.5V51q0-6.53 3.75-9.89 3.75-3.36 10.31-3.36 13.5 0 13.5 13.25v3.41q0 6.18-.13 8.31h-16.25v9.06q0 1.25.16 2.45.16 1.21.7 1.99.55.78 1.77.78 1.75 0 2.19-1.52.43-1.51.43-3.95v-4.5h11.13v2.66q0 5.25-1.3 8.79-1.29 3.55-4.37 5.35-3.08 1.8-8.39 1.8m-2.38-28.47h5.31v-6.32q0-2.53-.62-3.64-.63-1.11-1.88-1.11-1.34 0-2.07 1.07-.74 1.06-.74 3.68Z" paint-order="stroke"></path><rect width="27.56" height="47.88" x="-13.78" y="-23.94" fill="none" rx="0" ry="0" transform="translate(492.2 62.19)"></rect><path fill="#ffffff" d="M509.549 85.13V38.25h11.38v5.22q.81-2.72 2.87-4.25 2.06-1.53 5.19-1.53v9.34q-1.38 0-3.28.3-1.91.3-3.35.81-1.43.52-1.43 1.14v35.85Z" paint-order="stroke"></path><rect width="19.44" height="47.44" x="-9.72" y="-23.72" fill="none" rx="0" ry="0" transform="translate(519.77 61.91)"></rect><rect width="120.97" height="120.97" x="-60.48" y="-60.48" fill="#ffffff" rx="0" ry="0" transform="translate(69.05 65)scale(.9499)"></rect><path fill="#303030" d="m118.524 46.05-16.499-9.54-16.52 9.518v.021l-16.35 9.422v-.021l-16.488 9.506-16.509 9.518-.01-.011.02-19.045v-.01l14.526 8.402 16.498-9.506-14.514-8.393v-.01l-16.499-9.55-16.52 9.518-.01 19.066h.01l-.02 19.056 16.509 9.538 16.509-9.517v-.021l16.35-9.422v.021l16.488-9.506 16.509-9.518.01.011-.02 19.045v.01L87.467 66.23 70.97 75.736l14.514 8.393v.02l16.499 9.54 16.52-9.518.01-19.066z"></path></svg></svg>